<svg width="214.000000" height="22.000000" viewBox="0 0 214 22" fill="none" xmlns="http://www.w3.org/2000/svg" xmlns:xlink="http://www.w3.org/1999/xlink">
	<desc>
			Created with Pixso.
	</desc>
	<path d="M210.934 6.16504C210.821 7.63477 210.599 9.76074 210.373 11.4971L212.81 11.4971C212.81 11.4971 212.797 11.8354 212.769 11.9893C212.445 15.6294 212.137 17.0684 211.59 17.6016C211.283 17.9229 210.975 18.022 210.473 18.0493C210.025 18.0767 209.17 18.0767 208.275 18.022C208.261 17.7144 208.121 17.2939 207.954 17.0137C208.849 17.0991 209.745 17.1128 210.093 17.1128C210.373 17.1128 210.568 17.0854 210.708 16.959C211.115 16.5933 211.409 15.3628 211.689 12.4644L202.758 12.4644C202.926 11.3433 203.107 9.5249 203.206 8.16455L204.228 8.23633C204.143 9.2583 204.019 10.4888 203.907 11.4971L209.338 11.4971C209.519 10.0854 209.704 8.37646 209.827 7.14258L201.917 7.14258L201.917 6.1377L210.011 6.1377L210.179 6.07959L210.934 6.16504ZM199.077 10.6426L199.077 11.6953L193.755 11.6953C194.736 14.3408 196.64 16.2856 199.467 17.0991C199.231 17.3213 198.923 17.7554 198.77 18.0356C195.98 17.1128 194.121 15.1953 193.014 12.478C192.385 14.522 190.857 16.5796 187.302 18.0493C187.176 17.7827 186.854 17.3931 186.629 17.1812C190.228 15.7114 191.585 13.6538 192.077 11.6953L186.981 11.6953L186.981 10.6426L192.286 10.6426C192.357 10.0991 192.371 9.55225 192.371 9.06348L192.371 7.42285L187.47 7.42285L187.47 6.37354L198.476 6.37354L198.476 7.42285L193.448 7.42285L193.448 9.07715C193.448 9.56592 193.434 10.1128 193.379 10.6426L199.077 10.6426ZM200.854 14.1733L209.926 14.1733L209.926 15.1646L200.854 15.1646L200.854 14.1733Z" fill="#FFFFFFFF"/>
	<path d="M158 11C158 16.5228 162.477 21 168 21C173.523 21 178 16.5228 178 11C178 5.47722 173.523 1 168 1C162.477 1 158 5.47722 158 11L158 11Z" fill-rule="evenodd" fill="#0080FF"/>
	<path d="M161.464 18.5688L161.464 18.5688C162.579 17.4572 164.09 16.8332 165.665 16.8334L170.171 16.8334L170.171 16.8334C171.783 16.8333 173.325 17.487 174.446 18.645L174.446 18.645C172.644 20.1689 170.36 21.0035 168 21C165.501 21 163.217 20.0834 161.464 18.5688L161.464 18.5688Z" fill-rule="evenodd" fill="#94A0AF"/>
	<path d="M170.251 16.834C170.251 18.1224 169.206 19.1672 167.918 19.1672C166.629 19.1672 165.584 18.1224 165.584 16.834L165.664 16.8334L170.171 16.8334C170.197 16.8334 170.224 16.8334 170.251 16.834L170.251 16.834L170.251 16.834Z" fill-rule="evenodd" fill="#D0DFEB"/>
	<path d="M166.918 13.5L168.918 13.5L168.918 13.5C169.286 13.5 169.584 13.7985 169.584 14.1666L169.584 16.8334L169.584 16.8334C169.584 17.7539 168.838 18.5001 167.918 18.5001C166.997 18.5001 166.251 17.7539 166.251 16.8334L166.251 14.1666L166.251 14.1666C166.251 13.7985 166.549 13.5 166.918 13.5C166.918 13.5 166.918 13.5 166.918 13.5L166.918 13.5Z" fill-rule="evenodd" fill="#FFFFFF"/>
	<path d="M171.632 11.642L171.604 11.9666C171.444 13.8704 169.852 15.3338 167.941 15.3338C166.031 15.3338 164.439 13.8704 164.278 11.9666L164.252 11.6626L164.252 11.6626C163.794 11.7013 163.391 11.3608 163.352 10.9021C163.313 10.4434 163.654 10.0403 164.112 10.0016L164.074 9.5416C163.893 7.40559 165.479 5.52759 167.615 5.347L167.615 5.347C167.723 5.33798 167.832 5.33344 167.941 5.3334L171.802 5.3334L171.802 5.3334C171.986 5.33331 172.135 5.48251 172.135 5.66664C172.135 5.67598 172.135 5.6853 172.134 5.69461L171.77 10.002L171.77 10.002C172.229 9.96788 172.629 10.3123 172.663 10.7713C172.697 11.2303 172.353 11.6301 171.894 11.6642C171.806 11.6708 171.717 11.6633 171.631 11.642L171.632 11.642L171.632 11.642Z" fill-rule="evenodd" fill="#FFFFFF"/>
	<path d="M166.667 12.3334L169.333 12.3334L169.333 12.3334C169.333 13.0698 168.736 13.6668 168 13.6668C167.264 13.6668 166.667 13.0698 166.667 12.3334L166.667 12.3334Z" fill-rule="evenodd" fill="#D0DFEB"/>
	<path d="M100 19C95.5818 19 92 15.4182 92 11C92 6.58182 95.5818 3 100 3C104.418 3 108 6.58182 108 11C108 15.4182 104.418 19 100 19L100 19M100 17.9338C103.828 17.9338 106.934 14.8305 106.934 11C106.934 7.16946 103.828 4.06619 100 4.06619C96.1716 4.06619 93.0662 7.17165 93.0662 11C93.0662 14.8284 96.1716 17.9338 100 17.9338L100 17.9338M100.207 7.08945C100.936 7.08945 101.526 7.28218 101.982 7.6931C102.438 8.09091 102.664 8.63782 102.664 9.32001C102.664 9.87709 102.516 10.3425 102.232 10.7069C102.13 10.832 101.81 11.1287 101.277 11.5942C101.06 11.7767 100.902 11.9818 100.799 12.1855C100.673 12.4124 100.617 12.664 100.617 12.9375L100.617 13.1302L99.3986 13.1302L99.3986 12.9375C99.3986 12.5156 99.4662 12.152 99.6248 11.8575C99.7731 11.5396 100.205 11.072 100.911 10.4465L101.103 10.2305C101.309 9.968 101.421 9.69673 101.421 9.39999C101.421 9.00145 101.307 8.69453 101.091 8.46764C100.864 8.24074 100.534 8.12654 100.124 8.12654C99.611 8.12654 99.2363 8.28581 99.0088 8.616C98.8036 8.88945 98.7018 9.2771 98.7018 9.77673L97.507 9.77673C97.507 8.94618 97.7469 8.29819 98.2233 7.81964C98.7054 7.32874 99.3658 7.08945 100.207 7.08945L100.207 7.08945M100.004 13.7447C100.243 13.7447 100.447 13.8124 100.607 13.9716C100.766 14.12 100.847 14.3127 100.847 14.552C100.847 14.7913 100.756 14.984 100.596 15.1425L100.596 15.1425C100.436 15.2914 100.224 15.3727 100.005 15.3694C99.7789 15.3694 99.5731 15.2895 99.4146 15.1302L99.4146 15.1302C99.2581 14.978 99.1713 14.7681 99.1746 14.5498C99.1746 14.3105 99.2552 14.1178 99.4146 13.9695C99.5695 13.8124 99.7753 13.744 100.004 13.744L100.004 13.7447Z" fill-rule="evenodd" fill="#FFFFFF" fill-opacity="1.000000"/>
	<path d="M59.4285 16.0001L58.9913 16.0001L58.9913 8.99998C58.9913 6.42813 57.0529 4.31096 54.5587 4.03127L54.5587 3.56252C54.5587 3.25154 54.3074 3 53.9968 3C53.6863 3 53.4348 3.25154 53.4348 3.56252L53.4348 4.03127C50.9407 4.31096 49.0022 6.42813 49.0022 8.99998L49.0022 16.0001L48.5652 16.0001C48.2545 16.0001 48.0033 16.2516 48.0033 16.5625C48.0033 16.8735 48.2545 17.125 48.5652 17.125L52.873 17.125L52.873 17.8751C52.873 18.4969 53.3756 19 53.9968 19C54.618 19 55.1206 18.4969 55.1206 17.8751L55.1206 17.125L59.4285 17.125C59.739 17.125 59.9902 16.8735 59.9902 16.5625C59.9902 16.2516 59.739 16.0001 59.4285 16.0001L59.4285 16.0001M57.8677 16.0001L50.126 16.0001L50.126 8.99998C50.126 6.85942 51.8585 5.12502 53.9968 5.12502C56.1351 5.12502 57.8677 6.85942 57.8677 8.99998L57.8677 16.0001Z" fill-rule="evenodd" fill="#FFFFFF" fill-opacity="1.000000"/>
	<path d="M14.8359 17.0391L11.6218 13.8266C12.4828 12.7875 13 11.4547 13 10C13 6.68594 10.3141 4 7 4C3.68591 4 1 6.68594 1 10C1 13.3141 3.68591 16 7 16C8.45471 16 9.78748 15.4828 10.8265 14.6219L14.0406 17.8359C14.15 17.9453 14.2937 18 14.4391 18C14.5844 18 14.7266 17.9453 14.8375 17.8359C15.0547 17.6156 15.0547 17.2594 14.8359 17.0391L14.8359 17.0391M8.89685 14.4922C8.29688 14.7469 7.65942 14.875 7 14.875C6.34058 14.875 5.70312 14.7469 5.10315 14.4922C4.52344 14.2469 4.00159 13.8953 3.5531 13.4469C3.10474 12.9984 2.75317 12.4766 2.50781 11.8969C2.25317 11.2969 2.125 10.6594 2.125 10C2.125 9.34062 2.25317 8.70312 2.50781 8.10312C2.75317 7.52344 3.10474 7.00156 3.5531 6.55313C4.00159 6.10469 4.52344 5.75313 5.10315 5.50781C5.70312 5.25313 6.34058 5.125 7 5.125C7.65942 5.125 8.29688 5.25313 8.89685 5.50781C9.47656 5.75313 9.99841 6.10469 10.4469 6.55313C10.8953 7.00156 11.2468 7.52344 11.4922 8.10312C11.7468 8.70312 11.875 9.34062 11.875 10C11.875 10.6594 11.7468 11.2969 11.4922 11.8969C11.2468 12.4766 10.8953 12.9984 10.4469 13.4469C9.99841 13.8953 9.47815 14.2469 8.89685 14.4922L8.89685 14.4922Z" fill-rule="evenodd" fill="#FFFFFF" fill-opacity="1.000000"/>
	<defs/>
</svg>
