<svg width="12.000000" height="12.000000" viewBox="0 0 12 12" fill="none" xmlns="http://www.w3.org/2000/svg" xmlns:xlink="http://www.w3.org/1999/xlink">
	<desc>
			Created with Pixso.
	</desc>
	<path d="M6.67929 0.249557L6.67929 0.249557C6.31241 -0.0831909 5.75284 -0.0831909 5.38593 0.249557L0.156036 5.21454L0.156036 5.21454C-0.0401611 5.39478 -0.0530701 5.69992 0.127197 5.89609C0.305084 6.08963 0.605194 6.10516 0.802124 5.93102L0.885284 5.85208L0.885284 11.0341L0.885284 11.0341C0.884613 11.5669 1.3161 11.9993 1.849 12C1.8494 12 1.84979 12 1.85019 12L4.6582 12L4.6582 9.09563L4.6582 9.09561C4.65771 8.72046 4.96149 8.41595 5.33673 8.41547C5.33713 8.41547 5.33752 8.41547 5.33792 8.41547L6.65921 8.41547L6.65921 8.41547C7.03442 8.4153 7.33875 8.71928 7.33893 9.09442C7.33893 9.09483 7.33893 9.09523 7.33893 9.09563L7.33893 12L10.2136 12L10.2136 12C10.7465 12.0002 11.1786 11.5684 11.1788 11.0356C11.1788 11.0351 11.1788 11.0346 11.1788 11.0341L11.1788 5.91542C11.3931 6.10933 11.6973 6.09462 11.8756 5.8959L11.8756 5.8959C12.0542 5.6982 12.0386 5.39317 11.8409 5.21463C11.8408 5.2146 11.8408 5.21457 11.8408 5.21454L6.67929 0.249847L6.67929 0.249557Z" fill-rule="evenodd" fill="#FFFFFF"/>
	<defs/>
</svg>
